<svg xmlns="http://www.w3.org/2000/svg" viewBox="0 0 100 100">
  <!-- Camera body -->
  <rect x="20" y="32" width="60" height="45" rx="6" fill="none" stroke="#FF3B6D" stroke-width="3"/>

  <!-- Lens circles -->
  <circle cx="50" cy="54" r="16" fill="none" stroke="#FF3B6D" stroke-width="2.5"/>
  <circle cx="50" cy="54" r="10" fill="none" stroke="#FF3B6D" stroke-width="2"/>
  <circle cx="50" cy="54" r="4" fill="#FF3B6D"/>

  <!-- Flash/top detail -->
  <rect x="42" y="18" width="16" height="10" rx="2" fill="none" stroke="#FF3B6D" stroke-width="2"/>

  <!-- Heart in top-right -->
  <g transform="translate(75, 38) scale(0.8)">
    <path d="M 0 3 C 0 1 1 0 2 0 C 3 0 4 1 4 2 C 4 1 5 0 6 0 C 7 0 8 1 8 2 C 8 4 7 6 4 8 C 1 6 0 4 0 2 Z" fill="#FF3B6D"/>
  </g>
</svg>
